<svg xmlns="http://www.w3.org/2000/svg" viewBox="0 0 200 160" role="img" aria-label="Fenix">
  <defs>
    <linearGradient id="fenixBrown" x1="0%" y1="0%" x2="0%" y2="100%">
      <stop offset="0%" stop-color="#5c3c1c" />
      <stop offset="100%" stop-color="#3a2410" />
    </linearGradient>
  </defs>
  <g fill="url(#fenixBrown)">
    <path d="M98 22c-1.9 0-3.7 1.2-4.3 3l-7.3 22.2-18.6 6c-3 1-3.5 5-0.9 6.9l15.8 11.8-2.9 19.6c-.5 3.2 2.9 5.6 5.7 4l19.5-10.8 19.5 10.8c2.8 1.6 6.2-.8 5.7-4l-2.9-19.6 15.8-11.8c2.6-1.9 2.1-5.9-.9-6.9l-18.6-6-7.3-22.2c-.6-1.8-2.4-3-4.3-3z"/>
    <path d="M98 15c-2.8 0-5.3 1.8-6.2 4.4l-7.9 24-20.1 6.5c-4.4 1.4-5.3 7.1-1.5 9.8l17.1 12.8-3.1 21.1c-.6 4 3.6 7 7.1 4.9L98 88.1l14.6 10.4c3.5 2.5 7.7-.9 7.1-4.9l-3.1-21.1L133.7 60c3.8-2.8 2.9-8.4-1.5-9.8l-20.1-6.5-7.9-24C103.3 16.8 100.8 15 98 15z" fill-opacity="0.2"/>
  </g>
  <text x="100" y="145" text-anchor="middle" font-family="'Times New Roman', serif" font-size="36" fill="#3a2410">FENIX</text>
</svg>
